<svg xmlns="http://www.w3.org/2000/svg" width="270" height="135" fill="none"><path fill="url(#a)" d="M198.44 108.5v-74c-51 0-58 74-135 74h135Z"/><path stroke="url(#b)" stroke-width="2" d="M116.94 108.5H90.19m0 0H63.44c77 0 84-74 135-74v74H90.19Z"/><path stroke="url(#c)" stroke-width="2" d="M63.44 108.5c77 0 84-74 135-74"/><path fill="url(#d)" d="M90.19 108.5h49.537v-36c-17.55 18.16-38.481 36-76.287 36h26.75Z"/><path stroke="url(#e)" stroke-width="2" d="M116.94 108.5H90.19m0 0H63.44c37.806 0 58.737-17.84 76.287-36v36H90.19Z"/><path stroke="url(#f)" stroke-width="2" d="M116.94 108.5H90.19m0 0H63.44c37.806 0 58.737-17.84 76.287-36v36H90.19Z"/><defs><linearGradient id="a" x1="60.5" x2="165.5" y1="109" y2="109" gradientUnits="userSpaceOnUse"><stop stop-color="#002EFF"/><stop offset="1" stop-color="#002EFF" stop-opacity="0"/></linearGradient><linearGradient id="b" x1="70.5" x2="174" y1="109" y2="83.5" gradientUnits="userSpaceOnUse"><stop stop-color="#002EFF"/><stop offset="1" stop-color="#002EFF" stop-opacity="0"/></linearGradient><linearGradient id="c" x1="63" x2="198" y1="109" y2="36" gradientUnits="userSpaceOnUse"><stop stop-color="#FFE600" stop-opacity="0"/><stop offset=".385" stop-color="#FF4D00"/><stop offset=".974" stop-color="#002EFF" stop-opacity="0"/></linearGradient><linearGradient id="f" x1="63" x2="111" y1="109" y2="103.5" gradientUnits="userSpaceOnUse"><stop stop-color="#FFE600"/><stop offset="1" stop-color="#FF4D00" stop-opacity="0"/></linearGradient><radialGradient id="d" cx="0" cy="0" r="1" gradientTransform="matrix(55.49995 -12.50002 20.45462 90.81824 82 109)" gradientUnits="userSpaceOnUse"><stop stop-color="#F80196"/><stop offset="1" stop-color="#F80196" stop-opacity="0"/></radialGradient><radialGradient id="e" cx="0" cy="0" r="1" gradientTransform="matrix(116.4998 -29.00002 84.3637 338.90858 71 109)" gradientUnits="userSpaceOnUse"><stop stop-color="#F80196"/><stop offset=".511" stop-color="#F80196" stop-opacity="0"/></radialGradient></defs></svg>